<svg height="24" viewBox="0 0 24 24" width="24" xmlns="http://www.w3.org/2000/svg"><path d="m12 5.75c-3.313 0-6 2.687-6 6s2.687 6 6 6 6-2.687 6-6-2.687-6-6-6zm-1.8146999 2.80901868c.4569912-.48595023 1.0830655-.72901876 1.8800911-.72901876.7370526 0 1.3266946.2079441 1.7696734.62327181.4429789.4158882.6649354.94723862.6649354 1.59311707 0 .3919737-.0803378.7094014-.2408265.9532173-.1604888.2438158-.4896869.6021598-.9881549 1.0750317-.3620806.3437711-.5976758.6341081-.7071594.8728795-.1094836.2378372-.1642254.5903894-.1642254 1.0559749h-.9866602c0-.5283611.0625888-.9537778.1881399-1.2771841.1255512-.3232195.405052-.6933338.8386892-1.111464l.4525073-.4379344c.1356401-.1255511.245871-.2568941.3297586-.3932815.1532023-.240266.2299903-.4896869.2299903-.7480756 0-.36208059-.1102309-.67577164-.3314401-.94219418-.220275-.26567521-.5853449-.39926015-1.0946491-.39926015-.629811 0-1.0655034.22924296-1.3070772.68754204-.135827.25465212-.2131754.62252449-.2320455 1.10268289h-.986847c.00074733-.79758611.22924296-1.43991479.6853001-1.92530452zm1.3146999 6.44098132h1v1h-1z" fill-rule="evenodd"/></svg>